<svg width="48" height="48" viewBox="0 0 48 48" fill="none" xmlns="http://www.w3.org/2000/svg">
<path d="M23.9999 2.87988C12.3359 2.87988 2.87988 12.3359 2.87988 23.9999C2.87988 34.5887 10.6799 43.3314 20.8434 44.8588V29.5976H15.6181V24.046H20.8434V20.3519C20.8434 14.2357 23.8232 11.5506 28.9064 11.5506C31.341 11.5506 32.6284 11.7311 33.238 11.8136V16.6597H29.7704C27.6124 16.6597 26.8588 18.7055 26.8588 21.0114V24.046H33.1832L32.325 29.5976H26.8588V44.9039C37.1672 43.5052 45.1199 34.6914 45.1199 23.9999C45.1199 12.3359 35.6639 2.87988 23.9999 2.87988Z" fill="url(#paint0_linear)"/>
<defs>
<linearGradient id="paint0_linear" x1="45.1199" y1="13.8236" x2="3.27939" y2="16.821" gradientUnits="userSpaceOnUse">
<stop stop-color="#7EDC6F"/>
<stop offset="0.805266" stop-color="#61C09B"/>
</linearGradient>
</defs>
</svg>
