<svg width="48" height="48" viewBox="0 0 48 48" fill="none" xmlns="http://www.w3.org/2000/svg">
<path fill-rule="evenodd" clip-rule="evenodd" d="M23.8 3C12.3312 3 3 12.3312 3 23.8C3 35.2688 12.3312 44.6 23.8 44.6C35.2688 44.6 44.6 35.2688 44.6 23.8C44.6 12.3312 35.2688 3 23.8 3ZM27.7014 13.003C27.8685 13.0174 31.6977 13.3483 34.12 15.295C35.436 16.507 38 23.441 38 29.435C38 29.541 37.973 29.644 37.92 29.736C36.15 32.846 31.322 33.66 30.221 33.695C30.215 33.696 30.209 33.696 30.202 33.696C30.008 33.696 29.825 33.604 29.71 33.446L28.535 31.831C31.139 31.202 32.512 30.215 32.595 30.154C33.037 29.828 33.131 29.206 32.807 28.762C32.482 28.316 31.856 28.219 31.412 28.541C31.387 28.559 28.847 30.349 24 30.349C19.257 30.349 16.7154 28.6282 16.5923 28.5448C16.5901 28.5433 16.5887 28.5424 16.588 28.542C16.144 28.217 15.52 28.315 15.194 28.758C14.867 29.203 14.963 29.829 15.407 30.156C15.49 30.217 16.87 31.206 19.48 31.835L18.29 33.447C18.175 33.604 17.992 33.697 17.798 33.697C17.792 33.697 17.786 33.697 17.779 33.696C16.679 33.661 11.851 32.847 10.08 29.737C10.027 29.645 10 29.542 10 29.436C10 23.441 12.564 16.507 13.848 15.321C16.304 13.346 20.137 13.016 20.299 13.003C20.555 12.977 20.798 13.125 20.903 13.36C20.907 13.368 21.127 13.979 21.345 14.585C18.52 15.077 16.599 16.175 16.497 16.235C16.021 16.513 15.86 17.124 16.137 17.6C16.414 18.078 17.026 18.241 17.503 17.964C17.531 17.948 20.34 16.349 24.002 16.349C27.663 16.349 30.471 17.947 30.499 17.964C30.657 18.056 30.829 18.099 31 18.099C31.344 18.099 31.679 17.921 31.864 17.603C32.143 17.126 31.983 16.513 31.505 16.235C31.403 16.175 29.489 15.081 26.672 14.588C26.7264 14.4305 26.7813 14.2716 26.8327 14.1226C26.977 13.7049 27.0941 13.3658 27.097 13.36C27.202 13.126 27.445 12.981 27.701 13.003L27.7014 13.003ZM18 24.849C18 26.23 18.895 27.349 20 27.349C21.105 27.349 22 26.23 22 24.849C22 23.468 21.105 22.349 20 22.349C18.895 22.349 18 23.468 18 24.849ZM26 24.849C26 26.23 26.895 27.349 28 27.349C29.105 27.349 30 26.23 30 24.849C30 23.468 29.105 22.349 28 22.349C26.895 22.349 26 23.468 26 24.849Z" fill="url(#paint0_linear)"/>
<defs>
<linearGradient id="paint0_linear" x1="44.6" y1="13.8333" x2="3.39131" y2="16.7703" gradientUnits="userSpaceOnUse">
<stop stop-color="#7EDC6F"/>
<stop offset="0.805266" stop-color="#61C09B"/>
</linearGradient>
</defs>
</svg>
