<svg width="48" height="48" viewBox="0 0 48 48" fill="none" xmlns="http://www.w3.org/2000/svg">
<path d="M24.0002 3.2002C12.5314 3.2002 3.2002 12.5314 3.2002 24.0002C3.2002 35.469 12.5314 44.8002 24.0002 44.8002C35.469 44.8002 44.8002 35.469 44.8002 24.0002C44.8002 12.5314 35.469 3.2002 24.0002 3.2002ZM18.6658 9.60019H29.3314C34.3314 9.60019 38.4002 13.6674 38.4002 18.6658V29.3314C38.4002 34.3314 34.333 38.4002 29.3346 38.4002H18.6689C13.6689 38.4002 9.60019 34.333 9.60019 29.3346V18.6689C9.60019 13.6689 13.6674 9.60019 18.6658 9.60019ZM18.6658 12.8002C15.4322 12.8002 12.8002 15.4337 12.8002 18.6689V29.3346C12.8002 32.5682 15.4337 35.2002 18.6689 35.2002H29.3346C32.5682 35.2002 35.2002 32.5666 35.2002 29.3314V18.6658C35.2002 15.4322 32.5666 12.8002 29.3314 12.8002H18.6658ZM31.4689 15.4658C32.0577 15.4658 32.5346 15.9426 32.5346 16.5314C32.5346 17.1202 32.0577 17.6002 31.4689 17.6002C30.8801 17.6002 30.4002 17.1202 30.4002 16.5314C30.4002 15.9426 30.8801 15.4658 31.4689 15.4658ZM24.0002 16.0002C28.4114 16.0002 32.0002 19.589 32.0002 24.0002C32.0002 28.4114 28.4114 32.0002 24.0002 32.0002C19.589 32.0002 16.0002 28.4114 16.0002 24.0002C16.0002 19.589 19.589 16.0002 24.0002 16.0002ZM24.0002 19.2002C22.7272 19.2002 21.5063 19.7059 20.6061 20.6061C19.7059 21.5063 19.2002 22.7272 19.2002 24.0002C19.2002 25.2732 19.7059 26.4941 20.6061 27.3943C21.5063 28.2945 22.7272 28.8002 24.0002 28.8002C25.2732 28.8002 26.4941 28.2945 27.3943 27.3943C28.2945 26.4941 28.8002 25.2732 28.8002 24.0002C28.8002 22.7272 28.2945 21.5063 27.3943 20.6061C26.4941 19.7059 25.2732 19.2002 24.0002 19.2002Z" fill="url(#paint0_linear)"/>
<defs>
<linearGradient id="paint0_linear" x1="44.8002" y1="14.0335" x2="3.5915" y2="16.9705" gradientUnits="userSpaceOnUse">
<stop stop-color="#7EDC6F"/>
<stop offset="0.805266" stop-color="#61C09B"/>
</linearGradient>
</defs>
</svg>
