<svg width="48" height="48" viewBox="0 0 48 48" fill="none" xmlns="http://www.w3.org/2000/svg">
<path d="M24.0002 3.2002C12.5134 3.2002 3.2002 12.5134 3.2002 24.0002C3.2002 35.487 12.5134 44.8002 24.0002 44.8002C35.487 44.8002 44.8002 35.487 44.8002 24.0002C44.8002 12.5134 35.487 3.2002 24.0002 3.2002ZM16.1933 12.5654C17.6527 12.5654 18.6251 13.5378 18.6251 14.8343C18.6251 16.1309 17.6527 17.1033 16.0321 17.1033C14.5726 17.105 13.6002 16.1309 13.6002 14.8343C13.6002 13.5378 14.5726 12.5654 16.1933 12.5654ZM18.8002 32.6669H13.6002V18.8002H18.8002V32.6669ZM36.1335 32.6669H31.2386V25.0887C31.2386 22.9931 29.9334 22.5095 29.4446 22.5095C28.9558 22.5095 27.323 22.8319 27.323 25.0887C27.323 25.4111 27.323 32.6669 27.323 32.6669H22.2669V18.8002H27.3247V20.7346C27.9765 19.6062 29.2817 18.8002 31.7291 18.8002C34.1766 18.8002 36.1335 20.7346 36.1335 25.0887V32.6669Z" fill="url(#paint0_linear)"/>
<defs>
<linearGradient id="paint0_linear" x1="44.8002" y1="14.0335" x2="3.5915" y2="16.9705" gradientUnits="userSpaceOnUse">
<stop stop-color="#7EDC6F"/>
<stop offset="0.805266" stop-color="#61C09B"/>
</linearGradient>
</defs>
</svg>
