<svg width="48" height="48" viewBox="0 0 48 48" fill="none" xmlns="http://www.w3.org/2000/svg">
<path fill-rule="evenodd" clip-rule="evenodd" d="M23.8 3C12.3312 3 3 12.3312 3 23.8C3 35.2688 12.3312 44.6 23.8 44.6C35.2688 44.6 44.6 35.2688 44.6 23.8C44.6 12.3312 35.2688 3 23.8 3ZM32.0208 12.2292C32.3314 12.1068 32.685 11.996 33.0703 11.9792C33.4556 11.9625 33.8714 12.0397 34.3099 12.2969C34.7484 12.5542 35.1125 13.0445 35.2474 13.5469C35.3823 14.0494 35.3486 14.5424 35.2344 15.0522L35.2422 15.0209C35.2422 15.0209 31.5615 33.4957 31.487 33.8829V33.8855V33.8907C31.3797 34.4361 31.141 34.8386 30.7578 35.2318C30.3746 35.6251 29.7731 35.9975 29.0156 35.9975C27.7442 35.9975 27.1962 35.2532 27.1276 35.1563L23.2943 31.612L20.1641 34.2605L20.1354 34.2813C20.1354 34.2813 19.691 34.6745 18.9661 34.6745C18.7973 34.6745 18.615 34.637 18.4323 34.5808C18.4127 34.5768 18.3967 34.5744 18.3823 34.5722C18.3586 34.5686 18.3391 34.5656 18.3151 34.5574C18.302 34.5528 18.2897 34.5466 18.2774 34.5403C18.2676 34.5353 18.2577 34.5303 18.2474 34.5261L18.2786 34.5339C18.2732 34.5317 18.2678 34.5304 18.2623 34.529C18.2564 34.5275 18.2506 34.526 18.2448 34.5235C18.1647 34.4909 18.085 34.4562 18.013 34.4115C17.8254 34.295 17.6724 34.1474 17.5443 33.9844C17.288 33.6586 17.1034 33.2683 16.9141 32.6693H16.9167C16.6839 31.9335 15.6892 28.9438 15.2656 27.6745C14.0567 27.1907 11.2751 26.0799 10.375 25.7214C10.0673 25.5991 9.69918 25.4348 9.33594 25.0834C8.97269 24.732 8.67188 24.1183 8.67188 23.5157C8.67188 22.7687 9.1296 22.0856 9.54167 21.7709C9.89707 21.4994 10.2234 21.3775 10.3646 21.3248C10.3867 21.3165 10.4042 21.3099 10.4167 21.3048C11.1286 21.0052 12.0212 20.6295 13.0354 20.2026C15.8235 19.029 19.5308 17.4686 22.9297 16.0391C25.2473 15.0644 27.4216 14.1519 29.0625 13.4636C29.2298 13.3935 29.3907 13.3259 29.5451 13.2612C30.9058 12.6904 31.7631 12.3307 32.0208 12.2292ZM28.9115 33.1719C29.1242 32.08 32.3997 15.6244 32.5443 14.8985C32.1994 15.041 31.4775 15.3415 30.0938 15.9219C28.4544 16.6095 26.2808 17.5229 23.9635 18.4975C19.5482 20.3545 14.8074 22.3491 12.0417 23.5131C12.8503 23.8358 14.0544 24.3181 15.0654 24.7231C15.5196 24.905 15.9349 25.0713 16.2578 25.2006C16.3733 25.2469 16.4784 25.3102 16.5836 25.3736C16.5974 25.3819 16.6112 25.3902 16.625 25.3985C19.8002 23.5924 26.3567 19.8558 27.888 18.9011C27.9028 18.8919 27.9191 18.8815 27.9367 18.8702C28.0627 18.7896 28.2548 18.6667 28.401 18.6667C28.5864 18.6667 28.6667 18.779 28.6667 18.935C28.6667 19.0523 28.5941 19.1705 28.2474 19.5079C27.8167 19.9292 20.6667 27.1667 20.6667 27.1667L19.6302 31.2188L21.5729 29.5756C22.5925 28.7145 24.1228 28.7464 25.1042 29.6537L28.9115 33.1719ZM28.8724 33.3647H28.8698C28.8691 33.3684 28.8695 33.3685 28.8699 33.3686C28.8705 33.3688 28.871 33.3689 28.8698 33.3751L28.8724 33.3647Z" fill="url(#paint0_linear)"/>
<defs>
<linearGradient id="paint0_linear" x1="44.6" y1="13.8333" x2="3.39131" y2="16.7703" gradientUnits="userSpaceOnUse">
<stop stop-color="#7EDC6F"/>
<stop offset="0.805266" stop-color="#61C09B"/>
</linearGradient>
</defs>
</svg>
